HIERARCHY
ROOT Hips
{
	OFFSET 54.971600 -13.692214 85.721001
	CHANNELS 6 Xposition Yposition Zposition Xrotation Yrotation Zrotation
	JOINT spine
	{
		OFFSET 0.000000 -0.367607 6.392601
		CHANNELS 3 Xrotation Yrotation Zrotation
		JOINT spine1
		{
			OFFSET 0.000000 -0.000001 9.176109
			CHANNELS 3 Xrotation Yrotation Zrotation
			JOINT spine2
			{
				OFFSET 0.000000 -0.000002 8.792381
				CHANNELS 3 Xrotation Yrotation Zrotation
				JOINT Neck
				{
					OFFSET 0.000000 -1.076243 22.573700
					CHANNELS 3 Xrotation Yrotation Zrotation
					JOINT Head
					{
						OFFSET 0.000000 -0.000001 6.820114
						CHANNELS 3 Xrotation Yrotation Zrotation
						End Site
						{
							OFFSET 0.000000 5.444267 16.508499
						}
					}
				}
				JOINT RightShoulder
				{
					OFFSET -3.702209 0.515507 9.495087
					CHANNELS 3 Xrotation Yrotation Zrotation
					JOINT RightArm
					{
						OFFSET 0.000000 -0.000003 12.453705
						CHANNELS 3 Xrotation Yrotation Zrotation
						JOINT RightArmRoll
						{
							OFFSET 0.000000 -0.000001 6.286865
							CHANNELS 3 Xrotation Yrotation Zrotation
							JOINT RightForeArm
							{
								OFFSET 0.000000 -0.000003 18.311401
								CHANNELS 3 Xrotation Yrotation Zrotation
								JOINT RightForeArmRoll
								{
									OFFSET 0.000000 -0.000001 7.054825
									CHANNELS 3 Xrotation Yrotation Zrotation
									JOINT RightHand
									{
										OFFSET 0.000000 -0.000002 14.157501
										CHANNELS 3 Xrotation Yrotation Zrotation
										End Site
										{
											OFFSET 0.000000 0.000000 0.100006
										}
									}
								}
							}
						}
					}
				}
				JOINT LeftShoulder
				{
					OFFSET 3.702209 0.515507 9.495087
					CHANNELS 3 Xrotation Yrotation Zrotation
					JOINT LeftArm
					{
						OFFSET 0.000000 -0.000003 12.453705
						CHANNELS 3 Xrotation Yrotation Zrotation
						JOINT LeftArmRoll
						{
							OFFSET 0.000000 -0.000001 6.286865
							CHANNELS 3 Xrotation Yrotation Zrotation
							JOINT LeftForeArm
							{
								OFFSET 0.000000 -0.000003 18.311401
								CHANNELS 3 Xrotation Yrotation Zrotation
								JOINT LeftForeArmRoll
								{
									OFFSET 0.000000 -0.000001 7.054825
									CHANNELS 3 Xrotation Yrotation Zrotation
									JOINT LeftHand
									{
										OFFSET 0.000000 -0.000002 14.157501
										CHANNELS 3 Xrotation Yrotation Zrotation
										End Site
										{
											OFFSET 0.000000 0.000000 0.100006
										}
									}
								}
							}
						}
					}
				}
			}
		}
	}
	JOINT RightUpLeg
	{
		OFFSET -5.666161 0.871611 -1.039032
		CHANNELS 3 Xrotation Yrotation Zrotation
		JOINT RightUpLegRoll
		{
			OFFSET 0.000000 -0.000003 16.600502
			CHANNELS 3 Xrotation Yrotation Zrotation
			JOINT RightLeg
			{
				OFFSET 0.000000 0.000003 -20.557198
				CHANNELS 3 Xrotation Yrotation Zrotation
				JOINT RightLegRoll
				{
					OFFSET 0.000000 -0.000003 20.624397
					CHANNELS 3 Xrotation Yrotation Zrotation
					JOINT RightFoot
					{
						OFFSET 0.000000 -0.000003 17.166397
						CHANNELS 3 Xrotation Yrotation Zrotation
						JOINT RightToeBase
						{
							OFFSET 0.000000 -0.000003 14.350204
							CHANNELS 3 Xrotation Yrotation Zrotation
							End Site
							{
								OFFSET 0.006081 0.801060 6.949707
							}
						}
					}
				}
			}
		}
	}
	JOINT LeftUpLeg
	{
		OFFSET 5.666161 0.871611 -1.039032
		CHANNELS 3 Xrotation Yrotation Zrotation
		JOINT LeftUpLegRoll
		{
			OFFSET 0.000000 -0.000003 16.600601
			CHANNELS 3 Xrotation Yrotation Zrotation
			JOINT LeftLeg
			{
				OFFSET 0.000000 -0.000004 20.557098
				CHANNELS 3 Xrotation Yrotation Zrotation
				JOINT LeftLegRoll
				{
					OFFSET 0.000000 -0.000003 20.815102
					CHANNELS 3 Xrotation Yrotation Zrotation
					JOINT LeftFoot
					{
						OFFSET 0.000000 -0.000003 16.975693
						CHANNELS 3 Xrotation Yrotation Zrotation
						JOINT LeftToeBase
						{
							OFFSET 0.000000 -0.000003 14.350204
							CHANNELS 3 Xrotation Yrotation Zrotation
							End Site
							{
								OFFSET -0.027260 0.801060 6.949707
							}
						}
					}
				}
			}
		}
	}
}
MOTION
Frames: 8
Frame Time: 0.041667
54.066700 -14.205717 85.714203 -3.312626 1.968159 -3.470534 -1.089195 0.392164 -0.116404 1.825212 0.785138 -0.229521 3.470344 0.782387 -0.238682 11.346401 -11.436900 1.231037 10.388596 7.987620 1.104287 -22.514713 -24.670112 -27.820887 -118.481393 -136.502055 -74.244928 0.000000 0.000012 -0.000006 119.243000 -3.654128 9.759592 -0.000002 0.000007 -3.012103 -5.000237 -7.998726 0.000188 5.449234 53.991966 -7.198063 -32.914863 115.151006 28.755612 0.000001 0.000008 0.000013 4.205158 9.929964 0.186008 -0.000003 0.000001 3.000001 -5.000244 7.998804 -0.000157 1.456297 -177.101928 -0.034253 -179.999991 0.000005 -1.121006 174.379060 -2.547711 -0.531664 0.000002 0.000002 0.051882 68.601245 6.914284 2.099922 25.456953 -7.355613 0.000001 1.373294 173.012995 -0.861144 -0.000005 -0.000004 -1.065620 -7.682479 1.009816 0.654557 -0.000007 0.000000 -0.027043 69.810749 -6.348990 -3.509235 25.457459 7.355619 -0.000851 
54.071400 -14.208117 85.714500 -3.317723 1.975266 -3.473146 -1.088675 0.391677 -0.117134 1.826251 0.784336 -0.230661 3.471384 0.781571 -0.239831 11.339020 -11.451231 1.230629 10.401634 7.999801 1.103133 -22.501647 -24.732779 -27.798675 -118.475396 -136.503093 -74.205607 -0.000001 0.000012 -0.000009 119.074841 -3.660604 9.739552 -0.000001 0.000004 -3.012098 -5.000245 -7.998722 0.000187 5.437631 53.976171 -7.186806 -32.867109 115.171825 28.737106 0.000002 0.000009 0.000012 4.226809 9.944783 0.182995 -0.000001 0.000000 3.000000 -5.000242 7.998805 -0.000157 1.460714 -177.109947 -0.037627 -179.999991 0.000005 -1.121007 174.376205 -2.546692 -0.531693 0.000002 0.000002 0.051875 68.599483 6.914382 2.099950 25.456955 -7.355613 0.000001 1.367113 173.004976 -0.866143 -0.000005 -0.000005 -1.064930 -7.708014 1.010786 0.656156 -0.000007 0.000000 -0.027092 69.822941 -6.345158 -3.519154 25.457462 7.355617 -0.000851 
54.073799 -14.195516 85.732002 -3.322513 1.982844 -3.475861 -1.088144 0.391188 -0.117780 1.827321 0.783487 -0.231734 3.472443 0.780708 -0.240908 11.328214 -11.469331 1.230249 10.418047 8.017287 1.101611 -22.489875 -24.796973 -27.778303 -118.465847 -136.505661 -74.161545 -0.000001 0.000013 -0.000006 118.889783 -3.667293 9.717956 -0.000001 0.000005 -3.012100 -5.000244 -7.998724 0.000188 5.423903 53.959464 -7.173172 -32.822433 115.192274 28.721939 0.000002 0.000008 0.000013 4.248617 9.959271 0.179887 -0.000002 0.000001 3.000000 -5.000247 7.998804 -0.000158 1.464165 -177.111941 -0.032069 -179.999991 0.000005 -1.121006 174.373978 -2.557640 -0.531873 0.000002 0.000002 0.051869 68.597775 6.914303 2.100444 25.456955 -7.355613 -0.000000 1.364020 172.997968 -0.871575 -0.000005 -0.000004 -1.064360 -7.726541 1.011900 0.657374 -0.000007 0.000001 -0.027121 69.831779 -6.342440 -3.526064 25.457459 7.355617 -0.000851 
54.074203 -14.200215 85.728897 -3.326832 1.991011 -3.478707 -1.087655 0.390659 -0.118382 1.828311 0.782520 -0.232786 3.473442 0.779726 -0.241963 11.314012 -11.491787 1.229912 10.438055 8.040899 1.099614 -22.479088 -24.863308 -27.759344 -118.453935 -136.510305 -74.111494 0.000000 0.000012 -0.000006 118.688525 -3.674147 9.697849 0.000001 0.000004 -3.012099 -5.000247 -7.998727 0.000192 5.408225 53.941948 -7.157336 -32.776947 115.214773 28.706039 0.000002 0.000008 0.000013 4.270473 9.973496 0.176685 -0.000004 0.000001 2.999999 -5.000243 7.998804 -0.000156 1.466441 -177.108936 -0.018252 -179.999991 0.000005 -1.121007 174.372298 -2.579520 -0.533092 0.000002 0.000002 0.051862 68.596102 6.914014 2.101694 25.456948 -7.355613 -0.000000 1.363468 172.989963 -0.877632 -0.000005 -0.000005 -1.063890 -7.739116 1.013238 0.658254 -0.000007 0.000001 -0.027151 69.837906 -6.340798 -3.530222 25.457461 7.355617 -0.000852 
54.098400 -14.185215 85.729301 -3.330779 1.999669 -3.481675 -1.087184 0.390097 -0.118941 1.829261 0.781462 -0.233810 3.474381 0.778655 -0.242991 11.296896 -11.517892 1.229623 10.461332 8.069606 1.097194 -22.469243 -24.931505 -27.741667 -118.439947 -136.516576 -74.055390 -0.000000 0.000012 -0.000007 118.471817 -3.681666 9.676361 -0.000002 0.000006 -3.012102 -5.000242 -7.998724 0.000190 5.390816 53.923701 -7.139542 -32.733166 115.237681 28.691996 0.000001 0.000007 0.000013 4.292438 9.987378 0.173401 -0.000002 0.000001 2.999998 -5.000244 7.998805 -0.000159 1.467743 -177.101942 0.002772 -179.999991 0.000005 -1.119995 174.371082 -2.612360 -0.533389 0.000002 0.000002 0.051855 68.594408 6.913653 2.103130 25.456952 -7.355613 -0.000000 1.365175 172.981972 -0.884175 -0.000005 -0.000005 -1.063500 -7.746470 1.014746 0.658839 -0.000007 0.000000 -0.027182 69.841478 -6.340105 -3.532094 25.457461 7.355618 -0.000851 
54.097000 -14.186916 85.733894 -3.334451 2.008676 -3.484742 -1.086713 0.389516 -0.119458 1.830190 0.780343 -0.234803 3.475311 0.777521 -0.243986 11.277239 -11.546850 1.229349 10.487050 8.102384 1.094471 -22.459936 -25.001253 -27.724783 -118.424210 -136.524253 -73.993550 -0.000001 0.000012 -0.000007 118.240492 -3.690306 9.653633 -0.000003 0.000005 -3.012098 -5.000244 -7.998722 0.000189 5.371908 53.904932 -7.120047 -32.690686 115.260918 28.679374 0.000002 0.000009 0.000013 4.314540 10.000954 0.170049 -0.000002 0.000000 2.999999 -5.000241 7.998803 -0.000158 1.468258 -177.089962 0.030007 -179.999991 0.000005 -1.119996 174.370276 -2.652162 -0.534339 0.000002 0.000002 0.051849 68.592762 6.913116 2.105031 25.456955 -7.355613 -0.000001 1.368885 172.973981 -0.891095 -0.000005 -0.000004 -1.063200 -7.749356 1.016404 0.659169 -0.000007 -0.000000 -0.027215 69.843172 -6.340161 -3.531807 25.457457 7.355618 -0.000851 
54.097099 -14.215214 85.735703 -3.337962 2.017933 -3.487879 -1.086245 0.388928 -0.119936 1.831129 0.779188 -0.235761 3.476260 0.776351 -0.244945 11.255517 -11.577856 1.229101 10.514876 8.138204 1.091489 -22.451397 -25.072516 -27.708869 -118.407094 -136.533187 -73.926361 0.000000 0.000012 -0.000008 117.995534 -3.698587 9.631304 -0.000000 0.000003 -3.012098 -5.000244 -7.998721 0.000186 5.351735 53.885702 -7.099101 -32.649489 115.284468 28.668090 0.000002 0.000008 0.000013 4.336840 10.014429 0.166626 -0.000004 0.000001 3.000000 -5.000246 7.998803 -0.000157 1.468207 -177.074963 0.062375 -179.999991 0.000005 -1.118999 174.369839 -2.699932 -0.535061 0.000002 0.000002 0.051843 68.591191 6.912438 2.107301 25.456953 -7.355613 -0.000000 1.374309 172.966003 -0.898277 -0.000004 -0.000005 -1.062950 -7.748509 1.018150 0.659284 -0.000007 0.000001 -0.027250 69.843083 -6.340904 -3.529945 25.457461 7.355618 -0.000851 
54.096802 -14.207913 85.735901 -3.341394 2.027310 -3.491061 -1.085765 0.388346 -0.120377 1.832109 0.778026 -0.236678 3.477239 0.775175 -0.245864 11.232111 -11.610108 1.228829 10.544081 8.176057 1.088366 -22.443324 -25.144868 -27.693634 -118.388721 -136.543063 -73.853893 -0.000001 0.000012 -0.000008 117.737667 -3.707955 9.608784 -0.000001 0.000005 -3.012100 -5.000238 -7.998724 0.000187 5.330560 53.866215 -7.077000 -32.608262 115.309111 28.656612 0.000002 0.000007 0.000013 4.359371 10.027601 0.163157 -0.000003 0.000001 3.000000 -5.000243 7.998804 -0.000156 1.467800 -177.057969 0.098829 -179.999991 0.000005 -1.118999 174.369716 -2.751686 -0.535163 0.000002 0.000002 0.051836 68.589600 6.911723 2.109765 25.456959 -7.355614 -0.000001 1.381206 172.958039 -0.905612 -0.000005 -0.000005 -1.062760 -7.744663 1.019963 0.659228 -0.000007 -0.000000 -0.027286 69.841669 -6.342152 -3.526647 25.457459 7.355617 -0.000850 
